<svg width="370" height="370" viewBox="0 0 370 370" fill="none" xmlns="http://www.w3.org/2000/svg">
<path d="M0 0H370V370H0V0Z" fill="#191614"/>
<path d="M249.59 35.5548C248.502 35.8655 246.094 36.5647 244.152 37.0308C233.586 39.8275 226.672 41.925 225.352 42.6242C224.575 43.0126 223.099 43.3233 222.089 43.3233C221.001 43.3233 219.914 43.6341 219.681 44.1002C219.448 44.4886 218.205 44.877 216.962 44.877C215.719 44.877 214.553 45.1878 214.32 45.4985C214.087 45.887 201.968 46.2754 187.286 46.3531C172.603 46.4307 158.231 46.8192 155.202 47.2076C152.25 47.596 147.511 47.9845 144.792 47.9845C141.995 47.9845 137.8 48.4506 135.47 49.0721C127.779 51.0919 100.045 55.753 96.1607 55.753C95.0731 55.753 93.4417 56.2191 92.4318 56.6853C86.45 60.1034 72.2336 73.7761 69.6699 78.6703C67.1063 83.7198 62.2121 92.576 61.5906 93.4305C61.2799 93.8189 59.8816 96.3049 58.4832 98.8685C54.6766 105.783 53.1229 108.502 51.9576 110.366C51.4138 111.298 49.8601 114.017 48.6171 116.348C47.2965 118.678 44.1114 124.194 41.4701 128.622C38.9065 133.05 36.7313 136.779 36.7313 136.934C36.7313 137.012 34.7891 140.353 32.4586 144.237C30.128 148.199 28.1859 151.539 28.1859 151.695C28.1859 151.928 26.9429 153.948 25.4669 156.278C23.9908 158.609 22.7479 160.784 22.7479 161.017C22.7479 161.25 21.5049 163.425 20.0289 165.756C18.5528 168.086 17.3099 170.106 17.3099 170.339C17.3099 170.572 14.5909 175.156 11.3281 180.671C7.98761 186.109 4.88019 191.78 4.33639 193.256C3.79259 194.888 3.32648 202.346 3.17111 212.289C2.93805 227.127 3.09342 229.069 4.56945 233.653C5.50167 236.45 6.82233 240.8 7.5215 243.364C11.095 255.871 13.814 263.251 16.9991 269.311C18.9413 272.962 21.0388 276.535 21.6603 277.234C22.2817 277.856 22.7479 278.711 22.7479 278.944C22.7479 279.254 23.9908 281.43 25.5445 283.682C28.2635 287.8 28.3412 288.033 29.1181 299.453C30.0503 313.436 30.4387 314.291 37.2751 315.689C39.9164 316.233 45.432 317.009 49.7047 317.476C53.8998 317.942 59.9592 318.641 63.1443 319.107C66.3294 319.573 71.9228 320.272 75.574 320.661C91.5773 322.525 100.278 323.69 103.774 324.467C105.794 324.933 108.901 325.633 110.766 326.021C112.552 326.409 116.514 327.342 119.466 328.041C122.496 328.662 125.992 329.439 127.235 329.672C128.556 329.905 131.818 330.76 134.615 331.537C145.724 334.722 153.493 335.576 169.34 335.499C177.808 335.421 187.752 335.033 191.325 334.644C194.977 334.256 201.968 333.867 206.863 333.867C222.167 333.867 236.072 332.469 243.375 330.294C261.864 324.7 267.613 322.292 275.614 316.776C279.576 313.98 286.801 306.522 289.753 302.016C293.249 296.811 302.416 281.896 302.416 281.43C302.416 281.274 304.358 278.089 306.688 274.438C309.019 270.864 310.961 267.757 310.961 267.601C310.961 267.446 313.447 263.018 316.477 257.658C319.584 252.375 322.925 246.471 324.012 244.529C325.022 242.587 326.887 239.246 328.052 237.149C329.217 234.974 333.257 227.36 336.908 220.213C340.559 213.066 343.9 206.618 344.366 205.841C346.153 202.656 355.32 182.691 356.796 178.885C357.106 178.03 357.728 176.476 358.194 175.389C360.913 169.174 367.749 146.956 367.361 145.558C367.128 144.625 365.963 143.305 364.797 142.605C363.632 141.829 361.768 140.586 360.758 139.731L358.893 138.255L360.525 136.158C361.457 134.992 362.234 133.361 362.234 132.662C362.234 130.564 359.437 122.407 357.339 118.212C356.252 116.115 354.387 112.153 353.3 109.356C346.774 93.5859 345.065 90.4785 342.268 89.7793C339.472 89.0801 331.548 86.9826 328.052 85.9727C326.576 85.5066 324.09 84.8851 322.614 84.4967C315.778 82.8653 310.573 81.2339 309.641 80.457C309.019 79.9909 307.854 77.9711 306.999 76.0289C306.145 74.0868 303.736 68.9596 301.639 64.6869C297.055 55.2092 292.317 44.877 292.317 44.4109C292.317 44.2555 291.462 42.7019 290.452 41.1481C288.665 38.2738 288.432 38.1184 282.062 37.2639C266.059 35.011 253.319 34.3118 249.59 35.5548ZM271.342 43.2456C278.178 43.8671 282.994 44.644 282.994 45.1878C282.994 45.2655 281.751 48.3729 280.275 52.1795C278.799 55.9861 277.556 59.5596 277.556 60.1811C277.556 60.7249 277.246 61.191 276.78 61.191C276.391 61.191 276.003 61.6571 276.003 62.2786C276.003 62.8224 275.459 64.3761 274.837 65.5414C273.75 67.6389 273.361 67.7943 267.302 68.2604C263.728 68.4934 257.514 69.348 253.474 70.0471C249.434 70.7463 243.686 71.7562 240.656 72.1447C227.682 74.0868 222.633 74.9413 216.418 76.4174C211.601 77.5827 206.552 77.2719 205.62 75.8736C205.387 75.4851 204.532 75.1744 203.677 75.1744C202.901 75.1744 201.58 74.8637 200.803 74.4752C200.104 74.0091 196.841 72.7662 193.656 71.6786C190.471 70.5133 187.13 69.348 186.276 68.9596C181.382 67.0174 173.691 64.0654 166.855 61.5794C158.387 58.472 155.901 57.4621 153.881 56.4522C153.104 56.0637 151.939 55.753 151.162 55.753C150.385 55.753 150.152 55.52 150.541 55.0538C151.55 54.1216 182.469 52.6456 200.648 52.6456C210.591 52.6456 215.408 52.3349 217.195 51.6357C218.593 51.0142 223.565 49.6159 228.226 48.4506C237.704 46.12 246.793 43.4787 249.201 42.4688C250.833 41.7696 258.135 42.0027 271.342 43.2456ZM295.346 66.8621C297.522 71.4455 299.308 75.8736 299.308 76.7281C299.308 78.2818 299.231 78.2818 296.434 77.0388C294.803 76.4174 291.928 75.3298 289.986 74.7083C288.044 74.0868 285.869 73.2323 285.17 72.8438C284.393 72.3777 283.227 72.067 282.606 72.067C281.984 72.067 280.664 71.6009 279.654 71.0571C278.722 70.591 277.867 70.1249 277.789 70.1249C277.556 70.0472 283.227 54.6654 284.859 50.7035L286.18 47.596L288.821 53.034C290.219 55.9861 293.171 62.2009 295.346 66.8621ZM140.131 56.6076C143.316 57.6175 147.2 59.2489 151.162 61.2687C152.793 62.0455 154.503 62.7447 154.969 62.7447C155.745 62.7447 167.321 66.8621 172.293 68.9596C173.147 69.348 176.488 70.5133 179.673 71.6786C182.858 72.7662 186.121 74.0091 186.82 74.4752C187.597 74.8637 188.762 75.1744 189.383 75.1744C190.005 75.1744 191.17 75.4851 191.947 75.8736C193.734 76.8058 198.628 78.2818 199.793 78.2818C200.337 78.2818 202.357 79.0587 204.377 79.9909C209.115 82.2438 214.087 82.2438 225.119 79.9909C229.858 78.981 236.461 77.6603 239.879 77.0388C243.297 76.4174 247.881 75.5628 249.978 75.0967C265.437 71.9893 268.001 71.6786 269.399 72.8438C270.021 73.3876 270.565 74.3975 270.565 75.0967C270.565 76.262 266.913 85.895 263.418 93.7413C262.563 95.6057 261.242 98.8685 260.388 101.044C259.533 103.219 258.135 106.482 257.281 108.268C256.504 110.133 255.804 111.764 255.804 112.075C255.804 112.308 255.105 114.173 254.173 116.192C252.231 120.543 251.609 122.096 250.366 125.67C249.823 127.146 248.89 129.399 248.347 130.72C247.881 131.963 246.405 135.691 245.239 138.877C243.996 142.062 242.365 145.402 241.666 146.257C239.879 148.354 233.664 156.123 224.886 167.387C220.924 172.437 216.573 177.875 215.175 179.506C213.777 181.215 211.291 184.4 209.582 186.653C207.872 188.906 204.066 193.878 201.036 197.607C198.084 201.336 192.957 207.784 189.694 211.901C184.334 218.66 183.246 219.67 178.041 222.155C158.464 231.711 133.76 243.752 131.119 244.917C129.41 245.694 127.157 246.937 126.07 247.636C124.982 248.335 122.574 249.578 120.632 250.355C118.689 251.21 116.98 252.064 116.747 252.297C115.504 253.773 98.1028 261.309 93.4417 262.397C86.2946 264.183 84.3525 264.649 78.6815 266.125C75.4963 266.98 70.0584 268.456 66.6402 269.388C55.9973 272.263 42.6354 275.758 40.6155 276.147L38.5957 276.535L37.6635 263.795C37.1197 256.881 36.7313 249.656 36.7313 247.792C36.7313 245.927 36.4205 243.83 35.9544 243.053C34.8668 240.955 34.6338 223.476 35.7213 221.612C36.1875 220.757 37.1974 217.417 37.9742 214.232C38.6734 211.046 39.9941 206.308 40.7709 203.744C41.5478 201.18 42.5577 197.84 42.9461 196.364C45.1213 188.285 46.2866 184.167 46.8304 182.769C47.2188 181.914 48.7725 176.321 50.3262 170.339C51.8799 164.357 53.5113 158.764 53.8221 157.91C54.1328 157.055 55.065 154.258 55.7642 151.695C56.4634 149.131 57.3179 146.179 57.7064 145.091C58.0171 144.004 58.7163 141.751 59.1824 140.042C60.5807 134.759 63.9989 123.029 64.6204 121.009C65.0088 119.921 65.6303 117.668 66.0964 115.959C66.5625 114.25 67.8055 109.9 68.8931 106.249C69.9807 102.597 71.9228 96.0718 73.2435 91.7214C76.5839 80.0686 77.5938 78.3595 84.8963 71.6786C93.8301 63.5993 94.0632 63.4439 101.832 62.2009C108.513 61.191 114.261 60.1811 121.797 58.7827C123.972 58.3943 128.012 57.7729 130.886 57.4621C133.76 57.1514 136.324 56.6076 136.635 56.2968C137.334 55.5977 137.023 55.5976 140.131 56.6076ZM279.576 76.4174C281.285 77.1165 285.092 78.8256 288.044 80.1463C291.074 81.5446 294.725 83.0983 296.201 83.7198C297.677 84.2636 299.231 85.0405 299.697 85.4289C300.085 85.7397 301.017 86.0504 301.794 86.0504C304.28 86.0504 316.322 99.49 341.725 130.564L349.182 139.653L346.93 142.217C345.764 143.615 338.695 150.296 331.237 157.133C323.779 163.969 314.457 172.514 310.65 176.166C306.766 179.817 301.717 184.556 299.386 186.653C297.056 188.828 292.783 192.713 289.986 195.354C287.112 198.073 284.315 200.248 283.694 200.248C282.373 200.248 280.12 196.908 274.138 185.876C273.672 185.022 272.351 183.08 271.264 181.604C270.176 180.128 268.623 177.642 267.768 176.166C266.991 174.69 265.904 173.058 265.437 172.592C264.971 172.048 263.107 169.252 261.32 166.377C259.533 163.425 256.426 158.919 254.562 156.356C247.803 147.267 247.026 145.946 247.803 144.936C248.269 144.392 249.201 142.139 249.978 140.042C251.532 135.458 252.153 133.982 253.785 130.176C254.484 128.544 255.571 125.825 256.193 124.116C256.814 122.407 257.824 119.766 258.523 118.29C259.145 116.814 260.233 114.406 260.854 112.93C261.476 111.454 262.019 110.055 262.019 109.744C262.019 109.511 263.029 107.103 264.272 104.462C266.292 100.111 269.633 91.5661 273.361 81.0008C274.527 77.5827 275.77 75.1744 276.391 75.1744C276.469 75.1744 277.945 75.7182 279.576 76.4174ZM322.226 91.4884C323.546 91.8768 327.819 93.0421 331.859 94.1297C335.821 95.295 339.394 96.3826 339.783 96.5379C340.326 96.9264 342.113 100.5 345.92 108.968C346.93 111.065 348.639 114.949 349.804 117.513C355.087 129.088 356.174 134.215 353.378 134.215C352.756 134.215 348.328 129.477 343.511 123.65C338.773 117.824 332.325 110.211 329.295 106.715C326.265 103.141 323.08 99.4123 322.226 98.4024C321.371 97.3925 319.74 95.3726 318.574 93.9743C315.933 90.7892 315.778 89.5462 318.186 90.3231C319.118 90.5561 320.983 91.0999 322.226 91.4884ZM61.0468 114.173C60.0369 118.135 58.8716 122.64 58.4832 124.116C57.4733 128.389 56.1526 132.895 55.4535 134.604C54.5989 136.546 51.3361 147.422 49.1609 155.579C48.2287 158.997 47.1411 162.493 46.8304 163.347C46.5196 164.202 45.6651 166.999 44.9659 169.562C43.4899 175 42.713 177.719 41.4701 181.992C41.004 183.701 39.761 188.44 38.6734 192.48C37.5858 196.519 36.0321 202.113 35.1776 204.909C29.8949 222.155 29.4288 226.739 31.2156 246.083C32.6139 261.697 33.08 270.165 32.6139 270.165C32.0701 270.165 24.4569 262.164 20.6504 257.502C18.2421 254.628 17.0768 252.064 15.4454 246.238C14.2801 242.121 12.9595 238.081 12.5711 237.382C12.1826 236.605 11.8719 235.284 11.8719 234.507C11.8719 233.653 11.5611 232.798 11.2504 232.565C9.38595 231.478 8.53141 223.243 8.91984 210.969C9.30826 199.471 9.54132 197.918 11.3281 194.422C13.7363 189.528 17.3099 183.002 18.0867 181.992C18.3975 181.526 19.5628 179.661 20.5727 177.719C21.6603 175.777 23.8355 171.971 25.4669 169.174C27.0983 166.377 29.2734 162.571 30.361 160.628C31.4486 158.686 32.9247 156.2 33.7015 155.035C34.5561 153.948 35.1776 152.782 35.1776 152.549C35.1776 152.238 36.1098 150.607 37.1974 148.82C40.5379 143.538 43.8006 137.789 44.2668 136.313C44.4998 135.614 44.9659 134.992 45.3544 134.992C45.7428 134.992 46.0535 134.682 46.0535 134.293C46.0535 133.905 48.9279 128.777 52.3461 122.873C55.8419 116.892 59.4154 110.754 60.27 109.201C62.8336 104.54 63.1443 106.482 61.0468 114.173ZM358.971 147.189L360.602 148.587L358.971 153.404C358.116 156.123 357.029 158.298 356.718 158.298C356.33 158.298 356.019 155.501 356.019 152.083C356.019 148.665 356.33 145.868 356.718 145.868C357.106 145.868 358.116 146.49 358.971 147.189ZM350.27 155.346C349.959 159.774 349.416 167.543 349.105 172.67C348.639 180.361 348.173 182.614 346.619 185.488C345.609 187.43 344.521 189.061 344.211 189.217C343.822 189.372 343.589 189.994 343.589 190.693C343.589 191.314 343.123 192.79 342.502 193.878C341.88 195.043 338.462 201.88 334.966 209.182C331.393 216.407 327.12 224.797 325.411 227.826C320.206 237.071 312.515 250.977 312.515 251.288C312.515 251.676 299.464 268.223 293.016 275.992C288.199 281.896 281.907 287.178 280.975 286.324C280.742 286.091 280.975 280.886 281.363 274.749C281.829 268.611 282.761 256.57 283.383 248.025C284.004 239.479 284.626 226.972 284.703 220.213L284.937 207.861L288.821 204.288C311.893 183.002 333.335 162.959 341.569 155.035C345.92 150.84 349.726 147.5 350.115 147.422C350.503 147.422 350.581 150.918 350.27 155.346ZM248.424 156.2C250.133 158.842 252.93 162.959 254.717 165.29C258.679 170.65 266.68 182.303 266.68 182.691C266.68 182.924 268.778 186.731 271.342 191.237C273.905 195.742 276.003 199.704 276.003 199.937C276.003 200.17 276.78 201.491 277.712 202.734L279.343 205.142L271.652 212.6C267.457 216.717 262.019 221.767 259.689 223.865C255.882 227.205 223.643 258.202 217.428 264.416C216.107 265.737 208.183 273.195 199.871 281.041C191.559 288.887 181.848 298.054 178.352 301.395C174.856 304.735 171.516 307.454 170.894 307.454C170.35 307.454 165.456 304.502 160.018 300.851C154.58 297.2 149.997 294.248 149.764 294.248C149.608 294.248 146.19 291.995 142.228 289.198C138.266 286.479 128.633 279.876 120.865 274.671C113.018 269.466 106.648 264.96 106.648 264.727C106.648 263.95 110.455 261.93 147.822 243.208C189.616 222.155 187.907 223.321 198.473 209.57C204.299 201.88 211.679 192.402 219.525 182.38C223.021 177.875 228.148 171.194 230.945 167.62C238.014 158.609 244.152 151.306 244.773 151.306C245.084 151.306 246.715 153.481 248.424 156.2ZM279.965 224.098C279.499 229.536 279.11 237.693 279.11 242.198C279.11 246.704 278.566 259.367 277.789 270.32L276.469 290.363L271.73 294.403C267.38 298.132 259.145 304.424 254.562 307.454C251.687 309.396 242.21 316.233 241.821 316.699C241.588 317.009 240.112 318.175 238.403 319.418L235.373 321.671L226.75 319.884C222.011 318.952 216.884 317.864 215.408 317.553C213.932 317.243 208.494 316 203.367 314.834C198.239 313.669 192.491 312.426 190.549 312.115C183.324 310.717 180.294 309.94 179.595 309.241C179.129 308.775 183.246 304.424 190.316 297.743C196.686 291.762 203.444 285.314 205.387 283.372C207.329 281.43 211.213 277.778 213.932 275.292C216.651 272.729 223.798 265.97 229.78 260.144C235.762 254.317 247.181 243.441 255.028 235.983C262.952 228.526 271.652 220.213 274.449 217.572C277.479 214.698 279.809 213.066 280.198 213.455C280.586 213.843 280.508 218.193 279.965 224.098ZM105.949 271.02C109.134 273.117 114.184 276.535 117.136 278.477C128.944 286.246 154.736 303.337 159.63 306.755L164.912 310.406L155.357 315.067C134.693 325.166 135.547 324.856 132.44 323.924C130.886 323.457 126.924 322.525 123.739 321.748C120.554 321.049 117.213 320.195 116.359 319.806C115.504 319.495 113.795 319.029 112.475 318.874C101.133 317.087 96.7822 315.922 93.4417 313.669C92.3541 312.892 88.0037 310.484 83.731 308.231C79.4583 305.978 71.9228 301.939 67.0286 299.297C62.1344 296.656 56.1526 293.471 53.8998 292.228C48.9279 289.587 42.6354 283.915 43.1015 282.439C43.3345 281.896 44.4998 281.196 45.7428 280.886C46.9858 280.575 49.394 279.953 51.1031 279.487C54.2882 278.555 57.2402 277.778 62.7559 276.458C78.7591 272.573 96.8599 267.835 97.1706 267.446C98.2582 266.436 100.666 267.368 105.949 271.02ZM39.2172 286.712C40.6932 288.965 43.2568 291.529 45.8205 293.16C48.0733 294.636 50.0932 295.801 50.2485 295.801C50.4039 295.801 53.589 297.666 57.3956 299.919C63.9989 303.881 74.7972 309.94 78.4484 311.649C79.4583 312.115 80.2352 312.814 80.2352 313.203C80.2352 313.902 76.2732 313.669 60.4254 311.727C54.9097 311.028 47.5296 310.173 44.1891 309.785C40.8486 309.396 37.7412 308.775 37.2751 308.309C36.1098 307.143 35.2552 301.395 35.1776 294.558C35.1776 288.033 34.5561 285.78 30.9048 279.876C29.8949 278.167 29.0404 276.458 28.9627 275.992C28.9627 274.671 36.7313 282.828 39.2172 286.712ZM293.094 283.682C293.094 283.915 291.773 286.168 290.219 288.81C288.588 291.373 286.956 294.17 286.49 294.869C279.265 307.376 267.535 315.922 251.143 320.583C249.201 321.127 246.871 321.981 246.016 322.37C245.084 322.836 243.763 322.991 243.064 322.836C241.821 322.603 247.647 317.942 262.019 307.843C264.35 306.134 266.447 304.58 266.68 304.347C266.913 304.114 268.467 302.948 270.176 301.628C271.885 300.385 273.439 299.22 273.672 298.909C273.905 298.676 276.547 296.501 279.499 294.092C282.528 291.684 286.49 288.266 288.432 286.557C291.617 283.682 293.094 282.828 293.094 283.682ZM184.334 315.611C187.13 316.31 190.626 317.165 192.102 317.553C194.744 318.175 202.046 319.884 209.038 321.438C210.825 321.904 213.932 322.603 216.029 323.069C218.049 323.535 220.924 324.157 222.4 324.545C224.031 324.856 224.653 325.244 223.953 325.477C222.477 326.021 195.521 327.575 177.42 328.196C165.534 328.585 163.98 328.507 164.602 327.497C164.99 326.876 167.398 323.457 169.962 319.962C175.167 312.737 174.002 313.125 184.334 315.611ZM164.912 317.942C164.912 318.719 160.795 324.856 158.853 326.953C157.222 328.818 156.755 328.973 153.803 328.352C147.511 327.031 147.045 326.876 147.045 326.099C147.045 325.71 150.074 323.924 153.881 322.214C157.61 320.428 161.183 318.719 161.805 318.33C163.126 317.553 164.912 317.32 164.912 317.942Z" fill="#CE422B"/>
</svg>
