<?xml version="1.0" standalone="no"?>
<!DOCTYPE svg PUBLIC "-//W3C//DTD SVG 20010904//EN"
 "http://www.w3.org/TR/2001/REC-SVG-20010904/DTD/svg10.dtd">
<svg version="1.0" xmlns="http://www.w3.org/2000/svg"
 width="512.000000pt" height="512.000000pt" viewBox="0 0 512.000000 512.000000"
 preserveAspectRatio="xMidYMid meet">

<g transform="translate(0.000000,512.000000) scale(0.100000,-0.100000)"
fill="#000000" stroke="none">
<path d="M3313 4461 c-56 -14 -105 -30 -109 -34 -4 -4 -17 -7 -29 -7 -11 0
-25 -4 -30 -9 -6 -5 -21 -11 -35 -14 -21 -4 -20 -4 8 -6 17 0 32 -5 32 -10 0
-10 -13 -15 -67 -26 -18 -4 -33 -11 -33 -16 0 -12 90 -1 105 12 5 5 22 9 37 9
15 0 28 5 28 10 0 6 14 10 31 10 17 0 52 7 78 15 117 36 127 38 182 26 29 -7
103 -14 164 -18 65 -3 119 -11 132 -19 l21 -13 -23 -66 c-12 -36 -25 -69 -29
-72 -3 -4 -6 -14 -6 -23 0 -19 -47 -118 -68 -142 -11 -14 -19 -15 -34 -7 -11
6 -38 8 -62 5 -22 -4 -62 -9 -88 -12 -27 -3 -48 -10 -48 -15 0 -5 -27 -9 -59
-9 -33 0 -63 -4 -66 -10 -3 -5 -28 -10 -54 -10 -26 0 -51 -3 -55 -7 -4 -5 -53
-14 -109 -21 -197 -25 -188 -23 -162 -48 12 -12 22 -13 53 -4 22 5 50 10 63 9
41 0 119 13 125 22 3 5 19 9 36 9 42 0 148 22 148 31 0 4 10 7 23 7 12 0 72 4
132 8 135 8 143 3 117 -71 -9 -28 -20 -51 -24 -53 -5 -2 -8 -12 -8 -22 0 -10
-4 -22 -10 -25 -5 -3 -10 -15 -10 -26 0 -10 -4 -19 -9 -19 -5 0 -12 -18 -16
-40 -4 -22 -11 -40 -16 -40 -5 0 -9 -9 -9 -20 0 -11 -4 -20 -10 -20 -5 0 -10
-11 -10 -24 0 -14 -4 -27 -10 -31 -5 -3 -7 -12 -3 -20 3 -8 0 -15 -6 -15 -6 0
-11 -8 -11 -18 0 -11 7 -18 20 -18 11 0 20 5 20 10 0 5 9 28 19 50 49 106 101
243 101 269 0 9 5 17 10 17 6 0 10 6 10 13 0 8 7 28 16 45 15 31 46 43 59 22
3 -5 14 -10 24 -10 10 0 47 -15 82 -33 35 -18 83 -41 106 -50 81 -32 138 -61
153 -78 8 -9 69 -81 135 -160 66 -78 155 -183 199 -233 43 -50 97 -115 120
-146 22 -30 51 -66 64 -80 12 -14 21 -34 20 -45 -2 -10 -93 -102 -203 -203
-110 -101 -254 -234 -320 -296 -66 -62 -138 -129 -160 -148 -22 -20 -63 -59
-92 -87 -55 -54 -79 -63 -90 -33 -4 9 -16 31 -28 47 -12 17 -39 61 -59 98 -20
37 -46 78 -58 92 -11 13 -35 47 -52 77 -18 29 -42 58 -55 64 -12 6 -36 24 -54
40 -24 22 -21 8 3 -16 3 -3 14 -22 25 -43 11 -21 28 -47 38 -57 9 -11 17 -22
17 -26 0 -4 6 -15 14 -23 7 -9 30 -47 51 -86 20 -38 53 -99 72 -135 19 -36 39
-69 44 -74 5 -6 9 -17 9 -25 0 -9 -73 -83 -162 -166 -141 -131 -350 -330 -498
-475 -127 -124 -460 -441 -672 -639 -32 -29 -63 -51 -70 -48 -7 3 -58 35 -112
71 -55 36 -104 66 -108 66 -4 0 -8 4 -8 8 0 5 -19 19 -42 32 -24 13 -101 65
-173 115 -71 50 -187 129 -258 175 -70 47 -126 89 -124 95 3 9 287 160 417
221 94 44 365 179 370 184 3 3 61 33 130 68 121 60 127 65 190 143 122 151
144 179 185 234 16 22 35 46 42 53 7 7 13 17 13 21 0 4 8 16 18 27 14 15 134
163 206 255 64 80 97 133 92 146 -8 20 4 39 14 23 11 -17 51 29 48 55 -1 11 4
31 11 45 24 48 -112 -109 -244 -280 -22 -28 -71 -91 -108 -138 -38 -48 -74
-94 -80 -102 -7 -8 -46 -58 -87 -110 -41 -52 -78 -99 -82 -105 -4 -5 -25 -31
-45 -57 -21 -26 -48 -60 -60 -76 -12 -16 -59 -47 -105 -70 -46 -22 -265 -130
-488 -240 -545 -268 -530 -262 -660 -293 -48 -11 -103 -24 -160 -39 -19 -4
-75 -20 -125 -35 -49 -14 -108 -30 -130 -34 -22 -5 -74 -18 -115 -30 -108 -30
-117 -29 -124 17 -3 20 -8 82 -11 137 -8 143 -24 319 -36 399 -8 49 -8 74 0
90 10 19 46 148 58 206 2 14 8 34 12 45 17 42 30 91 37 133 4 23 11 45 15 48
5 3 9 16 9 29 0 13 4 26 9 29 5 3 11 20 14 38 6 37 46 193 57 223 18 46 60
192 60 208 0 8 4 18 9 21 5 3 11 18 14 33 3 16 12 54 20 86 13 52 13 58 -2 67
-13 8 -14 10 -1 11 8 1 18 1 23 0 4 0 7 10 7 23 0 14 4 27 9 30 5 3 11 18 14
33 3 16 14 61 26 100 12 40 21 82 21 93 0 11 4 20 9 20 5 0 11 15 14 33 4 17
9 47 13 65 3 18 2 38 -4 45 -8 9 -6 16 8 24 10 7 21 26 25 42 4 17 11 33 16
36 5 4 9 16 9 29 0 12 4 26 8 31 5 6 15 29 22 53 7 23 28 60 46 81 24 28 30
41 22 49 -8 8 -6 18 6 36 20 31 47 35 39 6 -8 -30 11 -24 43 13 53 60 81 75
152 83 44 4 80 15 106 31 29 19 37 21 33 9 -5 -12 0 -16 23 -16 16 0 32 5 35
10 3 6 16 10 28 10 12 0 33 6 47 13 14 7 36 10 49 7 37 -9 257 24 288 43 5 3
200 9 434 12 441 7 489 12 489 51 0 12 6 15 25 11 14 -2 23 -2 20 1 -3 3 7 14
22 24 l28 18 -27 0 c-15 0 -47 -6 -70 -14 -31 -10 -130 -16 -353 -20 -420 -9
-649 -21 -717 -40 -32 -9 -90 -20 -130 -26 -40 -6 -98 -15 -128 -20 -74 -13
-164 -28 -230 -38 -65 -9 -91 -22 -145 -72 -22 -21 -63 -57 -91 -81 -54 -47
-92 -97 -145 -194 -17 -33 -43 -80 -56 -105 -14 -24 -33 -56 -42 -70 -10 -14
-35 -56 -56 -95 -67 -123 -81 -148 -130 -230 -50 -84 -65 -111 -108 -187 -14
-25 -37 -64 -51 -87 -14 -22 -26 -43 -26 -46 0 -7 -91 -159 -98 -165 -4 -3
-27 -45 -52 -95 -25 -49 -53 -98 -62 -109 -9 -10 -24 -33 -33 -50 -8 -17 -33
-59 -54 -93 -45 -71 -48 -88 -58 -283 -11 -223 -11 -224 47 -410 4 -14 13 -45
20 -70 50 -183 93 -280 195 -441 l62 -98 7 -113 c4 -62 11 -136 17 -165 9 -46
14 -53 42 -62 36 -11 143 -28 262 -41 44 -5 116 -14 160 -20 44 -5 141 -17
215 -25 74 -8 158 -20 185 -25 64 -14 125 -26 195 -40 30 -5 102 -22 160 -36
58 -13 148 -34 200 -44 52 -11 118 -25 145 -31 54 -12 254 -9 600 10 429 22
495 29 585 56 47 15 99 30 115 35 171 46 330 148 437 280 36 45 238 373 351
570 33 58 69 121 80 140 89 157 176 322 282 535 111 225 135 276 180 380 7 17
36 100 65 185 28 85 56 163 61 172 5 10 9 33 9 52 0 29 -7 38 -50 67 -51 35
-61 57 -35 79 17 14 21 95 5 105 -5 3 -10 14 -10 24 0 10 -6 31 -14 47 -7 16
-20 44 -27 62 -8 17 -17 32 -21 32 -5 0 -8 6 -8 13 0 7 -11 37 -25 65 -14 29
-25 54 -25 57 0 22 -74 157 -92 169 -21 14 -75 30 -141 43 -15 3 -30 9 -33 14
-3 5 -18 9 -35 9 -16 0 -37 4 -47 9 -9 5 -51 16 -92 26 -41 10 -81 22 -89 29
-8 6 -31 47 -51 91 -226 486 -214 465 -278 465 -26 0 -72 4 -103 9 -31 5 -114
12 -185 15 -118 4 -138 2 -231 -23z m568 -148 c5 -16 39 -86 73 -158 119 -245
119 -245 38 -209 -67 29 -76 33 -161 60 l-83 28 6 46 c3 25 11 47 16 48 6 2
10 14 10 26 0 12 4 26 9 32 4 5 21 42 36 82 14 39 31 72 36 72 5 0 14 -12 20
-27z m497 -549 c170 -46 175 -49 195 -85 46 -89 135 -291 171 -388 17 -44 10
-71 -18 -71 -16 0 -86 74 -176 185 -40 50 -93 113 -118 140 -59 65 -192 230
-192 239 0 12 41 6 138 -20z m-3378 -171 c-1 -16 -7 -46 -15 -68 -8 -22 -15
-50 -15 -62 0 -12 -4 -24 -9 -27 -7 -5 -15 -37 -25 -101 -4 -22 -19 -71 -26
-80 -3 -5 -12 -30 -19 -55 -7 -25 -17 -54 -21 -65 -4 -11 -16 -49 -25 -85 -9
-36 -21 -76 -25 -90 -4 -14 -15 -52 -24 -85 -26 -92 -57 -198 -67 -220 -4 -11
-15 -51 -24 -90 -9 -38 -20 -83 -25 -100 -5 -16 -14 -50 -20 -75 -7 -25 -16
-54 -21 -65 -7 -18 -20 -72 -35 -145 -3 -14 -9 -34 -14 -45 -9 -22 -24 -96
-22 -107 1 -5 7 -86 13 -180 18 -275 25 -352 33 -369 14 -32 -13 -30 -41 2
-15 18 -52 58 -80 89 -90 98 -93 103 -128 225 -9 33 -31 100 -47 148 -29 88
-29 91 -26 275 l3 187 59 110 c32 61 67 122 77 137 11 14 19 29 19 32 0 4 11
23 24 44 29 43 78 131 103 185 10 20 21 37 25 37 5 0 8 5 8 10 0 6 16 36 35
66 19 30 35 57 35 60 0 3 16 30 35 60 19 30 35 59 35 64 0 6 3 10 8 10 4 0 12
10 18 23 20 41 97 182 103 187 7 6 29 45 63 111 13 24 26 46 31 47 4 2 7 10 7
18 0 8 5 14 10 14 6 0 10 -12 10 -27z m3795 -529 c14 -9 25 -24 25 -33 0 -20
-20 -75 -43 -120 -9 -19 -17 -41 -17 -50 0 -11 -3 -12 -11 -4 -9 9 -9 20 0 44
6 17 11 65 11 105 0 41 2 74 5 74 3 0 17 -7 30 -16z m-99 -56 c-3 -29 -11
-129 -17 -223 l-11 -170 -85 -175 c-134 -278 -156 -322 -187 -375 -16 -27 -45
-81 -66 -120 -21 -38 -48 -88 -60 -110 -13 -22 -35 -62 -50 -89 -32 -57 -261
-353 -318 -411 -50 -51 -101 -89 -109 -82 -5 6 7 243 28 532 5 66 12 204 15
307 l6 187 92 83 c50 46 98 90 106 98 9 8 45 42 80 75 253 233 348 323 445
417 61 59 116 108 123 108 10 0 12 -13 8 -52z m-910 -940 c-4 -79 -11 -242
-16 -363 -12 -310 -26 -495 -36 -504 -26 -24 -136 -111 -184 -146 -30 -22 -57
-42 -60 -45 -3 -4 -43 -33 -90 -65 -47 -33 -111 -79 -142 -103 -31 -24 -61
-41 -66 -38 -5 3 -35 10 -68 16 -32 6 -78 15 -101 20 -24 6 -62 14 -85 19 -24
5 -79 17 -123 26 -44 10 -98 21 -120 25 -138 27 -183 38 -204 49 -23 13 -23
13 30 63 30 28 90 85 134 127 44 42 161 153 260 246 99 94 256 244 350 335 93
91 204 197 245 235 41 39 115 109 165 157 49 48 96 88 104 88 11 0 12 -25 7
-142z m-2272 -580 c71 -52 150 -105 476 -321 168 -111 304 -206 304 -212 -1
-11 -46 -35 -241 -128 -66 -31 -129 -57 -139 -57 -10 0 -55 10 -99 21 -133 34
-146 37 -260 59 -122 24 -128 27 -235 89 -41 24 -115 65 -165 91 -49 26 -108
57 -130 70 -22 12 -77 42 -121 65 -45 24 -92 50 -105 59 -36 24 -83 86 -72 97
11 11 63 25 527 143 98 25 181 48 184 51 12 11 34 4 76 -27z m-832 -224 c24
-34 57 -69 73 -78 46 -24 118 -67 135 -80 8 -7 40 -25 70 -41 61 -32 101 -54
175 -97 28 -16 58 -32 68 -35 9 -3 17 -12 17 -19 0 -11 -12 -13 -57 -8 -69 7
-192 22 -288 36 -38 5 -101 12 -140 14 -97 7 -104 18 -105 154 0 116 -13 167
-59 234 -16 22 -32 52 -36 66 -11 36 92 -65 147 -146z m3272 29 c-68 -122
-134 -215 -203 -285 -41 -43 -79 -78 -84 -78 -5 0 -23 -11 -41 -25 -18 -14
-36 -25 -40 -25 -3 0 -25 -9 -49 -19 -23 -11 -82 -31 -132 -46 -49 -15 -98
-31 -107 -36 -23 -12 -38 -11 -38 1 0 6 6 10 14 10 8 0 16 3 18 8 3 8 152 119
263 197 39 27 75 54 81 60 6 5 37 30 68 55 97 77 199 164 234 198 18 17 35 32
38 32 2 0 -7 -21 -22 -47z m-1419 -398 c39 -9 81 -20 95 -25 14 -4 61 -16 105
-25 44 -10 105 -24 135 -32 67 -18 133 -33 182 -40 52 -7 38 -23 -20 -23 -26
0 -83 -4 -127 -9 -139 -16 -605 -35 -614 -25 -8 8 25 57 115 172 16 21 32 31
42 28 9 -3 49 -12 87 -21z m-279 -116 c-25 -38 -52 -69 -59 -68 -6 0 -38 6
-70 13 -87 18 -83 27 43 88 150 72 155 71 86 -33z"/>
<path d="M2065 4230 c3 -5 10 -10 16 -10 5 0 9 5 9 10 0 6 -7 10 -16 10 -8 0
-12 -4 -9 -10z"/>
<path d="M2100 4203 c0 -13 17 -23 58 -37 51 -17 109 -40 169 -68 12 -6 33 -8
46 -4 14 3 44 -1 67 -9 83 -29 61 -8 -25 25 -11 4 -37 15 -58 24 -21 9 -44 16
-52 16 -8 0 -15 5 -15 10 0 6 -9 10 -19 10 -11 0 -22 4 -25 9 -4 5 -29 12 -56
16 -28 4 -50 11 -50 16 0 5 -9 9 -20 9 -12 0 -20 -7 -20 -17z"/>
<path d="M2495 4050 c-15 -7 -10 -8 20 -5 22 2 32 2 23 -1 -33 -10 -18 -21 59
-42 69 -19 80 -20 93 -7 13 13 12 15 -3 15 -9 0 -27 5 -40 12 -48 24 -57 28
-94 33 -21 2 -47 0 -58 -5z"/>
<path d="M2810 3950 c0 -14 40 -22 86 -17 38 3 37 4 -8 5 -27 1 -48 7 -48 12
0 6 -7 10 -15 10 -8 0 -15 -4 -15 -10z"/>
<path d="M3491 3524 c0 -11 3 -14 6 -6 3 7 2 16 -1 19 -3 4 -6 -2 -5 -13z"/>
<path d="M3470 3484 c0 -8 5 -12 10 -9 6 3 10 10 10 16 0 5 -4 9 -10 9 -5 0
-10 -7 -10 -16z"/>
<path d="M3450 3440 c0 -5 5 -10 10 -10 6 0 10 5 10 10 0 6 -4 10 -10 10 -5 0
-10 -4 -10 -10z"/>
<path d="M3440 3401 c0 -23 9 -31 26 -24 21 8 17 30 -6 36 -14 4 -20 0 -20
-12z"/>
<path d="M3420 3350 c0 -11 -4 -20 -10 -20 -5 0 -10 -9 -10 -20 0 -11 5 -20
10 -20 6 0 10 9 10 20 0 13 7 20 20 20 11 0 20 4 20 10 0 5 -8 6 -17 3 -12 -5
-15 -2 -10 10 3 9 2 17 -3 17 -6 0 -10 -9 -10 -20z"/>
<path d="M3431 3294 c0 -11 3 -14 6 -6 3 7 2 16 -1 19 -3 4 -6 -2 -5 -13z"/>
<path d="M3376 3243 c-4 -21 -2 -51 3 -68 7 -24 9 -25 10 -8 1 12 4 23 9 26 4
2 1 2 -5 1 -15 -4 -17 22 -3 31 13 8 13 55 1 55 -5 0 -12 -17 -15 -37z"/>
<path d="M3350 3174 c0 -8 5 -12 10 -9 6 4 8 11 5 16 -9 14 -15 11 -15 -7z"/>
</g>
</svg>
